<svg xmlns="http://www.w3.org/2000/svg" width="1280" height="720" viewBox="0 0 1280 720">
  <rect width="1280" height="720" fill="#f5f7fb"/>
  <rect x="40" y="32" width="1200" height="110" rx="8" fill="#1d4ed8"/>
  <text x="1180" y="78" text-anchor="end" font-family="Tahoma" font-size="30" fill="#fff">مركز التحكم بالمزامنة</text>
  <text x="1180" y="112" text-anchor="end" font-family="Tahoma" font-size="18" fill="#dbeafe">لوحة مراقبة آمنة بدون تنفيذ ApplyMode</text>
  <g font-family="Tahoma" font-size="18" fill="#172033">
    <rect x="40" y="170" width="220" height="110" rx="8" fill="#fff" stroke="#dfe5ef"/><text x="220" y="212" text-anchor="end">قيد الانتظار</text><text x="220" y="252" text-anchor="end" font-size="34" font-weight="700">12</text>
    <rect x="285" y="170" width="220" height="110" rx="8" fill="#fff" stroke="#dfe5ef"/><text x="465" y="212" text-anchor="end">تعارض بيانات</text><text x="465" y="252" text-anchor="end" font-size="34" font-weight="700">2</text>
    <rect x="530" y="170" width="220" height="110" rx="8" fill="#fff" stroke="#dfe5ef"/><text x="710" y="212" text-anchor="end">فشل</text><text x="710" y="252" text-anchor="end" font-size="34" font-weight="700">1</text>
    <rect x="775" y="170" width="220" height="110" rx="8" fill="#fff" stroke="#dfe5ef"/><text x="955" y="212" text-anchor="end">تم التطبيق</text><text x="955" y="252" text-anchor="end" font-size="34" font-weight="700">44</text>
    <rect x="1020" y="170" width="220" height="110" rx="8" fill="#fff" stroke="#dfe5ef"/><text x="1200" y="212" text-anchor="end">محجوب</text><text x="1200" y="252" text-anchor="end" font-size="34" font-weight="700">0</text>
  </g>
  <rect x="40" y="315" width="580" height="340" rx="8" fill="#fff" stroke="#dfe5ef"/>
  <rect x="660" y="315" width="580" height="340" rx="8" fill="#fff" stroke="#dfe5ef"/>
  <text x="590" y="355" text-anchor="end" font-family="Tahoma" font-size="22" fill="#172033">اتجاه الدُفعات الأخيرة</text>
  <text x="1210" y="355" text-anchor="end" font-family="Tahoma" font-size="22" fill="#172033">استخدام الملفات التعريفية</text>
</svg>
