<svg height="512pt" viewBox="0 0 512.00511 512" width="512pt" xmlns="http://www.w3.org/2000/svg"><path d="m80.726562 366.9375-40.796874 130.542969c-1.113282 3.5625-4.410157 5.988281-8.144532 5.988281h-.511718c-2.539063 0-4.945313-1.128906-6.566407-3.082031-1.621093-1.953125-2.289062-4.527344-1.820312-7.023438l23.707031-126.425781zm0 0" fill="#a4c2f7"/><path d="m153.773438 366.9375 6.570312 36.179688 16.957031 90.242187c.46875 2.496094-.195312 5.070313-1.816406 7.023437-1.621094 1.957032-4.03125 3.085938-6.570313 3.085938h-.503906c-3.734375 0-7.035156-2.425781-8.144531-5.988281l-16.648437-53.316407-14.847657-47.363281-9.300781-29.863281zm0 0" fill="#a4c2f7"/><path d="m93.867188 238.9375h324.265624c4.714844 0 8.535157 3.820312 8.535157 8.53125v17.066406c0 4.714844-3.820313 8.535156-8.535157 8.535156h-324.265624c-4.710938 0-8.53125-3.820312-8.53125-8.535156v-17.066406c0-4.710938 3.820312-8.53125 8.53125-8.53125zm0 0" fill="#cad9fc"/><path d="m93.867188 238.9375h298.667968c4.710938 0 8.53125 3.820312 8.53125 8.53125v17.066406c0 4.714844-3.820312 8.535156-8.53125 8.535156h-298.667968c-4.710938 0-8.53125-3.820312-8.53125-8.535156v-17.066406c0-4.710938 3.820312-8.53125 8.53125-8.53125zm0 0" fill="#e8edfc"/><path d="m23.808594 323.332031 8.191406-1.195312c6.714844-.933594 12.78125-4.496094 16.863281-9.910157 4.082031-5.410156 5.84375-12.222656 4.898438-18.933593l-7.167969-54.355469c-1.980469-13.996094-14.933594-23.738281-28.929688-21.761719l-6.910156.9375zm0 0" fill="#e8edfc"/><path d="m149.503906 366.9375h-85.84375c-.003906-9.054688 3.59375-17.738281 9.996094-24.140625 6.398438-6.402344 15.082031-9.996094 24.136719-9.996094h42.667969c4.578124-.035156 9.113281.898438 13.3125 2.734375zm0 0" fill="#e8edfc"/><path d="m140.972656 375.46875h-88.96875c-17.128906-.035156-31.59375-12.734375-33.847656-29.714844l-18.0898438-143.808594c-.5859372-4.675781 2.7265628-8.945312 7.4023438-9.535156s8.945312 2.722656 9.53125 7.402344l18.085938 143.769531c1.140624 8.476563 8.367187 14.804688 16.917968 14.820313h88.96875c4.710938 0 8.53125 3.820312 8.53125 8.535156 0 4.710938-3.820312 8.53125-8.53125 8.53125zm0 0" fill="#e8edfc"/><path d="m431.277344 366.9375 40.792968 130.542969c1.113282 3.5625 4.414063 5.988281 8.144532 5.988281h.511718c2.539063 0 4.945313-1.128906 6.566407-3.082031 1.621093-1.953125 2.289062-4.527344 1.820312-7.023438l-23.703125-126.425781zm0 0" fill="#7facfa"/><path d="m358.230469 366.9375-6.570313 36.179688-16.960937 90.242187c-.46875 2.496094.199219 5.070313 1.820312 7.023437 1.621094 1.957032 4.027344 3.085938 6.566407 3.085938h.503906c3.734375 0 7.035156-2.425781 8.148437-5.988281l16.648438-53.316407 14.847656-47.363281 9.300781-29.863281zm0 0" fill="#a4c2f7"/><path d="m488.191406 323.332031-8.191406-1.195312c-6.710938-.933594-12.78125-4.496094-16.863281-9.910157-4.082031-5.410156-5.84375-12.222656-4.894531-18.933593l7.167968-54.355469c1.980469-13.996094 14.929688-23.738281 28.925782-21.761719l6.914062.9375zm0 0" fill="#cad9fc"/><path d="m448.34375 366.9375h-85.847656l-4.265625-31.402344c4.195312-1.835937 8.730469-2.769531 13.3125-2.734375h42.667969c9.050781 0 17.734374 3.59375 24.136718 9.996094s9.996094 15.085937 9.996094 24.140625zm0 0" fill="#cad9fc"/><path d="m426.667969 366.9375h-64.171875l-4.265625-31.402344c4.195312-1.835937 8.730469-2.769531 13.3125-2.734375h20.992187c9.054688 0 17.738282 3.59375 24.136719 9.996094 6.402344 6.402344 10 15.085937 9.996094 24.140625zm0 0" fill="#e8edfc"/><path d="m371.03125 375.46875h88.964844c17.132812-.035156 31.597656-12.734375 33.851562-29.714844l18.089844-143.808594c.589844-4.675781-2.722656-8.945312-7.398438-9.535156-4.679687-.589844-8.945312 2.722656-9.535156 7.402344l-18.085937 143.769531c-1.140625 8.476563-8.367188 14.804688-16.921875 14.820313h-88.964844c-4.714844 0-8.535156 3.820312-8.535156 8.535156 0 4.710938 3.820312 8.53125 8.535156 8.53125zm0 0" fill="#7f8c8d"/><path d="m113.730469 503.46875h-15.703125c-2.839844 0-5.496094-1.414062-7.078125-3.769531-1.585938-2.359375-1.894531-5.351563-.824219-7.984375l89.078125-218.644532h34.132813l-91.703126 225.085938c-1.308593 3.210938-4.433593 5.3125-7.902343 5.3125zm0 0" fill="#e8edfc"/><path d="m398.273438 503.46875h15.699218c2.84375 0 5.496094-1.414062 7.082032-3.769531 1.585937-2.359375 1.894531-5.351563.820312-7.984375l-89.074219-218.644532h-34.132812l91.703125 225.085938c1.308594 3.210938 4.433594 5.3125 7.902344 5.3125zm0 0" fill="#e8edfc"/><path d="m247.46875 25.601562h17.066406c4.710938 0 8.53125 3.820313 8.53125 8.535157v25.597656h-34.132812v-25.597656c0-4.714844 3.820312-8.535157 8.535156-8.535157zm0 0" fill="#e8edfc"/><path d="m312.492188 102.402344h-112.980469c-1.796875.015625-3.40625-1.101563-4.019531-2.789063-.617188-1.6875-.097657-3.578125 1.289062-4.71875l42.152344-35.160156h34.132812l42.15625 35.160156c1.386719 1.140625 1.902344 3.03125 1.289063 4.71875s-2.222657 2.804688-4.019531 2.789063zm0 0" fill="#7facfa"/><path d="m279.382812 102.402344h-79.871093c-1.796875.015625-3.40625-1.101563-4.019531-2.789063-.617188-1.6875-.097657-3.578125 1.289062-4.71875l42.152344-35.160156h1.023437l42.15625 35.160156c1.386719 1.140625 1.902344 3.03125 1.289063 4.71875-.613282 1.6875-2.222656 2.804688-4.019532 2.789063zm0 0" fill="#a4c2f7"/><path d="m230.402344 102.402344h51.199218v8.535156c0 14.136719-11.460937 25.597656-25.601562 25.597656-14.136719 0-25.597656-11.460937-25.597656-25.597656zm0 0" fill="#e8edfc"/><path d="m45.136719 374.71875-22.25 118.644531c-.464844 2.496094.203125 5.070313 1.824219 7.023438 1.617187 1.953125 4.027343 3.082031 6.5625 3.082031h.511718c3.734375 0 7.035156-2.425781 8.148438-5.988281l19.460937-62.277344 11.339844-60.484375c-11.085937-1.679688-21.121094-7.511719-28.066406-16.316406-6.582031-1.71875-16.15625-27.15625-17.066407-34.132813l17.546876-2.226562c2.816406-.449219 5.539062-1.375 8.054687-2.734375l-12.777344-101.554688c-2.769531-.683594-5.636719-.898437-8.476562-.636718l-11.882813-4.84375c-.28125-2.246094-1.445312-4.289063-3.230468-5.675782-1.789063-1.386718-4.054688-2.007812-6.300782-1.726562-4.675781.589844 1.714844-7.605469 2.304688-2.925782l7.3125 143.808594c1.929687 14.40625 12.75 26.019532 26.984375 28.964844zm0 0" fill="#fffdfd"/><path d="m418.132812 281.601562h-324.265624c-9.421876-.007812-17.054688-7.644531-17.066407-17.066406v-17.066406c.011719-9.421875 7.644531-17.058594 17.066407-17.066406h324.265624c9.421876.007812 17.058594 7.644531 17.070313 17.066406v17.066406c-.011719 9.421875-7.648437 17.058594-17.070313 17.066406zm-324.265624-34.132812v17.066406h324.28125l-.015626-17.066406zm0 0" fill="#428dff"/><path d="m23.796875 331.863281c-4.480469.011719-8.207031-3.449219-8.527344-7.921875-.324219-4.46875 2.871094-8.425781 7.308594-9.058594l8.191406-1.195312c4.480469-.605469 8.535157-2.972656 11.265625-6.582031 2.730469-3.605469 3.910156-8.148438 3.277344-12.628907l-7.175781-54.421874c-.628907-4.457032-3.011719-8.472657-6.621094-11.160157-3.617187-2.730469-8.179687-3.90625-12.667969-3.269531l-6.949218.9375c-3.054688.476562-6.125-.734375-8.03125-3.167969-1.90625-2.429687-2.347657-5.699219-1.15625-8.550781 1.1875-2.851562 3.824218-4.835938 6.894531-5.191406l6.910156-.9375c8.953125-1.273438 18.039063 1.078125 25.253906 6.523437 7.257813 5.425781 12.039063 13.535157 13.273438 22.515625l7.171875 54.425782c2.585937 18.621093-10.410156 35.8125-29.03125 38.402343l-8.140625 1.195313c-.414063.058594-.828125.085937-1.246094.085937zm0 0" fill="#428dff"/><path d="m63.660156 375.46875h-11.65625c-17.128906-.035156-31.59375-12.734375-33.847656-29.714844l-18.0898438-143.808594c-.5859372-4.675781 2.7265628-8.945312 7.4023438-9.535156s8.945312 2.722656 9.53125 7.402344l18.085938 143.769531c1.140624 8.476563 8.367187 14.804688 16.917968 14.820313h11.65625c4.710938 0 8.53125 3.820312 8.53125 8.535156 0 4.710938-3.820312 8.53125-8.53125 8.53125zm0 0" fill="#428dff"/><path d="m140.972656 375.46875h-77.3125c-4.714844 0-8.535156-3.820312-8.535156-8.53125.03125-23.554688 19.117188-42.640625 42.667969-42.667969h42.667969c5.777343-.042969 11.5 1.140625 16.789062 3.46875 2.800781 1.234375 4.726562 3.871094 5.050781 6.914063.320313 3.042968-1.011719 6.023437-3.492187 7.816406-2.480469 1.789062-5.730469 2.117188-8.515625.855469-3.101563-1.347657-6.453125-2.027344-9.832031-1.988281h-42.667969c-10.84375.011718-20.511719 6.84375-24.136719 17.066406h67.316406c4.710938 0 8.53125 3.820312 8.53125 8.535156 0 4.710938-3.820312 8.53125-8.53125 8.53125zm0 0" fill="#428dff"/><path d="m54.980469 368.507812-20.445313 109.039063-5.152344 27.492187-16.777343-3.140624 5.152343-27.503907 20.445313-109.027343zm0 0" fill="#fff"/><g fill="#428dff"><path d="m38.730469 408.871094c4.628906.855468 9.078125-2.191406 9.960937-6.8125l6.289063-33.550782-16.773438-3.144531-6.292969 33.546875c-.851562 4.628906 2.191407 9.082032 6.816407 9.960938zm0 0"/><path d="m12.605469 501.898438 16.773437 3.144531 6.730469-35.886719c.566406-3-.507813-6.074219-2.824219-8.0625s-5.515625-2.589844-8.394531-1.574219-4.996094 3.488281-5.554687 6.488281zm0 0"/><path d="m42.398438 435.605469c.382812-2.226563-.085938-4.515625-1.316407-6.410157l-1.066406-1.246093c-.40625-.40625-.867187-.757813-1.367187-1.042969-.429688-.328125-.90625-.59375-1.417969-.78125-.535157-.195312-1.085938-.359375-1.644531-.480469-2.226563-.386719-4.515626.085938-6.410157 1.316407-2.402343 1.578124-3.832031 4.277343-3.792969 7.148437.039063 2.875 1.546876 5.53125 3.992188 7.039063.929688.621093 1.96875 1.050781 3.066406 1.273437 2.226563.378906 4.511719-.089844 6.410156-1.320313 1.832032-1.320312 3.097657-3.28125 3.546876-5.496093zm0 0"/><path d="m38.058594 512.003906h-17.066406c-4.710938 0-8.53125-3.820312-8.53125-8.535156 0-4.710938 3.820312-8.53125 8.53125-8.53125h10.792968l40.796875-130.546875c.90625-2.910156 3.300781-5.113281 6.277344-5.78125 2.972656-.667969 6.078125.300781 8.144531 2.542969 2.066406 2.246094 2.777344 5.417968 1.867188 8.328125l-42.664063 136.535156c-1.113281 3.5625-4.414062 5.988281-8.148437 5.988281zm0 0"/><path d="m128.765625 405.339844c-3.734375-.003906-7.03125-2.433594-8.144531-6l-9.300782-29.867188c-.964843-2.925781-.277343-6.148437 1.800782-8.425781 2.074218-2.277344 5.222656-3.257813 8.226562-2.5625 3.003906.691406 5.398438 2.953125 6.265625 5.914063l9.300781 29.867187c.800782 2.589844.328126 5.40625-1.28125 7.59375-1.605468 2.183594-4.15625 3.476563-6.867187 3.480469zm0 0"/><path d="m179.203125 512.003906h-17.070313c-3.730468 0-7.03125-2.429687-8.144531-5.992187l-18.515625-59.308594c-.925781-2.914063-.222656-6.101563 1.847656-8.355469 2.070313-2.25 5.1875-3.222656 8.171876-2.546875 2.980468.675781 5.375 2.894531 6.269531 5.820313l16.648437 53.316406h.503906l-16.957031-90.242188c-.097656-.519531-.148437-1.050781-.148437-1.578124-.058594-4.535157 3.441406-8.324219 7.964844-8.625 4.527343-.300782 8.496093 2.988281 9.039062 7.492187l18.773438 99.90625c.46875 2.496094-.195313 5.070313-1.816407 7.027344-1.621093 1.953125-4.027343 3.085937-6.566406 3.085937zm0 0"/><path d="m119.46875 512.003906h-34.132812c-2.84375 0-5.5-1.414062-7.085938-3.773437-1.585938-2.355469-1.890625-5.351563-.820312-7.980469l93.867187-230.402344c1.308594-3.210937 4.433594-5.3125 7.90625-5.3125h34.132813c2.839843 0 5.496093 1.414063 7.082031 3.773438 1.585937 2.355468 1.894531 5.347656.820312 7.980468l-93.867187 230.402344c-1.308594 3.210938-4.433594 5.3125-7.902344 5.3125zm-21.441406-17.066406h15.699218l86.917969-213.335938h-15.703125zm0 0"/><path d="m488.207031 331.863281c-.417969 0-.835937-.027343-1.246093-.085937l-8.195313-1.195313c-8.941406-1.257812-17.019531-6.019531-22.453125-13.234375s-7.78125-16.292968-6.519531-25.238281l7.15625-54.289063c1.25-8.976562 6.015625-17.089843 13.253906-22.546874 7.234375-5.457032 16.34375-7.8125 25.320313-6.546876l6.875.933594c4.589843.714844 7.765624 4.972656 7.140624 9.578125-.621093 4.605469-4.816406 7.863281-9.433593 7.332031l-6.910157-.941406c-4.5-.644531-9.074218.53125-12.707031 3.265625-3.621093 2.703125-6.007812 6.746094-6.628906 11.222657l-7.15625 54.292968c-.652344 4.480469.511719 9.03125 3.230469 12.652344 2.71875 3.617188 6.769531 6.003906 11.25 6.625l8.242187 1.199219c4.4375.632812 7.628907 4.589843 7.308594 9.0625-.320313 4.46875-4.046875 7.929687-8.527344 7.917969zm0 0"/><path d="m459.996094 375.46875h-11.652344c-4.714844 0-8.535156-3.820312-8.535156-8.53125 0-4.714844 3.820312-8.535156 8.535156-8.535156h11.652344c8.566406-.019532 15.800781-6.367188 16.925781-14.859375l18.078125-143.730469c.589844-4.679688 4.859375-7.992188 9.535156-7.402344 4.675782.589844 7.988282 4.859375 7.398438 9.535156l-18.082032 143.769532c-2.242187 16.996094-16.710937 29.714844-33.855468 29.753906zm0 0"/><path d="m448.34375 375.46875h-77.3125c-4.714844 0-8.535156-3.820312-8.535156-8.53125 0-4.714844 3.820312-8.535156 8.535156-8.535156h67.316406c-3.628906-10.222656-13.292968-17.054688-24.136718-17.066406h-42.667969c-3.402344-.019532-6.769531.664062-9.890625 2.011718-4.300782 1.804688-9.253906-.175781-11.121094-4.445312-1.871094-4.273438.035156-9.253906 4.277344-11.1875 5.277344-2.296875 10.976562-3.472656 16.734375-3.445313h42.667969c23.550781.027344 42.636718 19.113281 42.664062 42.667969 0 2.261719-.898438 4.433594-2.5 6.03125-1.597656 1.601562-3.769531 2.5-6.03125 2.5zm0 0"/><path d="m491.007812 512.003906h-17.066406c-3.730468 0-7.03125-2.425781-8.144531-5.988281l-42.667969-136.535156c-1.40625-4.496094 1.101563-9.285157 5.601563-10.691407s9.285156 1.101563 10.691406 5.601563l40.796875 130.546875h.511719l-23.707031-126.429688c-.847657-4.625 2.203124-9.0625 6.820312-9.925781 4.621094-.867187 9.070312 2.167969 9.953125 6.78125l25.601563 136.535157c.464843 2.496093-.203126 5.066406-1.824219 7.019531-1.621094 1.953125-4.027344 3.085937-6.566407 3.085937zm0 0"/><path d="m383.238281 405.339844c-2.710937-.003906-5.261719-1.296875-6.867187-3.480469-1.609375-2.1875-2.085938-5.003906-1.28125-7.59375l9.300781-29.867187c.867187-2.960938 3.261719-5.222657 6.265625-5.914063 3.003906-.695313 6.148438.285156 8.226562 2.5625 2.078126 2.277344 2.765626 5.5 1.800782 8.425781l-9.300782 29.867188c-1.113281 3.566406-4.410156 5.996094-8.144531 6zm0 0"/><path d="m349.867188 512.003906h-17.066407c-2.539062 0-4.945312-1.132812-6.566406-3.085937s-2.289063-4.527344-1.820313-7.023438l18.828126-100.191406c.726562-4.367187 4.671874-7.453125 9.085937-7.105469 4.414063.34375 7.828125 4.007813 7.863281 8.433594 0 .558594-.046875 1.113281-.144531 1.664062l-16.957031 90.242188h.503906l16.644531-53.316406c.898438-2.925782 3.289063-5.148438 6.273438-5.824219s6.097656.296875 8.167969 2.550781c2.070312 2.253906 2.777343 5.441406 1.851562 8.355469l-18.519531 59.304687c-1.109375 3.566407-4.410157 5.996094-8.144531 5.996094zm0 0"/><path d="m426.667969 512.003906h-34.132813c-3.46875 0-6.59375-2.101562-7.90625-5.3125l-93.867187-230.402344c-1.070313-2.632812-.761719-5.625.824219-7.980468 1.585937-2.359375 4.242187-3.773438 7.082031-3.773438h34.132812c3.46875 0 6.59375 2.101563 7.90625 5.3125l93.867188 230.402344c1.070312 2.628906.761719 5.625-.824219 7.980469-1.585938 2.359375-4.242188 3.773437-7.082031 3.773437zm-28.394531-17.066406h15.699218l-86.910156-213.335938h-15.699219zm0 0"/><path d="m273.066406 68.269531h-34.132812c-4.710938 0-8.53125-3.820312-8.53125-8.535156v-25.597656c.007812-9.421875 7.644531-17.058594 17.066406-17.066407h17.066406c9.421875.007813 17.058594 7.644532 17.066406 17.066407v25.597656c0 4.714844-3.820312 8.535156-8.535156 8.535156zm-25.597656-17.066406h17.066406v-17.066406h-17.066406zm0 0"/><path d="m324.269531 110.9375h-136.535156c-3.589844-.003906-6.796875-2.253906-8.019531-5.628906-1.222656-3.378906-.199219-7.160156 2.558594-9.460938l51.199218-42.667968c1.535156-1.277344 3.464844-1.976563 5.460938-1.976563h34.132812c1.996094 0 3.929688.699219 5.460938 1.976563l51.203125 42.667968c2.757812 2.300782 3.78125 6.082032 2.558593 9.460938-1.222656 3.375-4.429687 5.625-8.019531 5.628906zm-112.964843-17.066406h89.390624l-30.71875-25.601563h-27.953124zm0 0"/><path d="m256 145.070312c-18.839844-.023437-34.109375-15.292968-34.132812-34.132812v-8.535156c0-4.710938 3.820312-8.53125 8.535156-8.53125h51.199218c4.710938 0 8.53125 3.820312 8.53125 8.53125v8.535156c-.019531 18.839844-15.289062 34.109375-34.132812 34.132812zm-17.066406-34.132812c0 9.425781 7.640625 17.066406 17.066406 17.066406s17.066406-7.640625 17.066406-17.066406zm0 0"/><path d="m256 34.136719c-4.710938 0-8.53125-3.820313-8.53125-8.535157v-17.066406c0-4.710937 3.820312-8.53124975 8.53125-8.53124975 4.714844 0 8.535156 3.82031275 8.535156 8.53124975v17.066406c0 4.714844-3.820312 8.535157-8.535156 8.535157zm0 0"/></g></svg>